<?xml version="1.0" standalone="no"?>
<!DOCTYPE svg PUBLIC "-//W3C//DTD SVG 20010904//EN"
 "http://www.w3.org/TR/2001/REC-SVG-20010904/DTD/svg10.dtd">
<svg version="1.0" xmlns="http://www.w3.org/2000/svg"
 width="517.000000pt" height="752.000000pt" viewBox="0 0 517.000000 752.000000"
 preserveAspectRatio="xMidYMid meet">

<g transform="translate(0.000000,752.000000) scale(0.100000,-0.100000)"
fill="#000000" stroke="none">
<path d="M2446 7505 c-117 -41 -265 -194 -481 -495 -73 -102 -141 -196 -152
-209 l-19 -23 -77 17 c-86 19 -235 24 -373 12 l-90 -8 -13 27 c-23 52 -140
220 -219 315 -153 185 -343 314 -480 326 -60 6 -62 5 -95 -28 -38 -38 -49 -74
-68 -230 -14 -112 -8 -247 26 -645 l24 -291 -33 -109 c-58 -190 -71 -258 -70
-394 0 -69 5 -144 12 -167 20 -69 75 -93 123 -54 23 19 24 22 24 202 l1 184
38 125 c64 207 62 182 33 541 -33 390 -34 675 -4 705 9 10 96 -33 161 -80 124
-88 284 -283 397 -483 29 -50 62 -96 74 -101 15 -7 56 -5 131 5 160 21 339 13
425 -20 58 -22 69 -23 96 -12 38 16 104 95 230 273 165 235 279 368 374 438
54 39 74 42 89 13 20 -35 27 -223 22 -519 -4 -276 -4 -287 18 -345 56 -153
101 -300 115 -380 20 -114 19 -307 -1 -418 -15 -80 -15 -89 0 -112 19 -29 59
-41 95 -29 36 13 58 84 73 234 20 203 -14 424 -104 661 l-43 114 0 375 c0 364
-1 377 -23 442 -46 135 -125 183 -236 143z"/>
<path d="M881 6064 c-50 -35 -66 -134 -32 -190 47 -77 157 -119 202 -78 34 30
59 90 59 137 0 83 -70 147 -160 147 -26 0 -56 -7 -69 -16z"/>
<path d="M1714 6055 c-72 -43 -92 -121 -53 -202 28 -58 58 -77 110 -70 112 15
177 125 138 236 -22 63 -120 81 -195 36z"/>
<path d="M1321 5569 c-28 -17 -39 -19 -58 -10 -55 25 -93 8 -93 -41 0 -21 8
-33 29 -46 24 -14 30 -24 33 -62 3 -40 0 -48 -29 -74 -74 -66 -11 -147 63 -82
l28 23 43 -30 c36 -26 47 -29 71 -21 20 7 28 17 30 40 3 25 -5 36 -48 73 -44
37 -50 47 -50 81 0 33 5 41 35 60 33 20 40 35 35 70 -5 36 -46 45 -89 19z"/>
<path d="M1819 5509 c-29 -25 -30 -48 -4 -75 24 -24 26 -24 214 -24 104 0 248
-5 318 -11 123 -10 445 -53 490 -65 23 -6 63 25 63 51 0 47 -106 73 -455 111
-207 22 -605 30 -626 13z"/>
<path d="M735 5493 c-228 -27 -460 -100 -643 -201 -85 -47 -107 -76 -85 -111
19 -30 53 -22 185 43 203 100 356 144 573 166 113 11 135 21 135 60 0 43 -53
57 -165 43z"/>
<path d="M1804 5335 c-14 -22 -15 -27 -2 -48 13 -19 32 -25 131 -39 160 -23
327 -81 543 -188 100 -50 186 -90 191 -90 17 0 43 35 43 58 0 28 -32 49 -218
140 -237 117 -484 192 -628 192 -35 0 -47 -5 -60 -25z"/>
<path d="M700 5296 c-219 -82 -320 -132 -447 -223 -51 -36 -63 -49 -63 -72 0
-65 48 -67 132 -5 83 61 254 144 418 203 147 53 173 74 146 116 -21 31 -62 27
-186 -19z"/>
<path d="M613 5092 c-13 -2 -30 -13 -38 -25 -27 -39 -18 -76 36 -150 l51 -70
-36 -121 c-75 -252 -97 -401 -97 -646 0 -346 74 -699 238 -1139 143 -384 239
-691 340 -1081 60 -233 125 -522 118 -528 -2 -2 -80 -15 -172 -28 -278 -40
-516 -107 -643 -181 -116 -68 -214 -194 -257 -330 -34 -110 -31 -238 8 -323
95 -205 321 -338 701 -414 217 -44 318 -51 713 -50 326 0 376 2 418 18 37 13
64 16 115 11 83 -9 463 12 516 28 22 6 54 26 73 44 l33 33 190 -11 c146 -8
202 -8 240 1 28 7 53 16 56 21 3 5 15 -2 26 -16 39 -50 60 -54 335 -66 329
-14 751 -7 848 15 121 27 186 56 236 106 61 61 76 119 54 204 l-15 58 55 60
c64 68 113 139 179 257 166 292 248 728 233 1231 -18 579 -157 1005 -446 1365
-49 61 -226 247 -395 415 -184 183 -346 353 -404 425 -53 66 -130 163 -172
215 -196 246 -453 456 -737 601 -126 64 -169 73 -203 39 -25 -25 -27 -81 -2
-102 9 -9 69 -42 132 -74 208 -105 431 -271 575 -426 37 -40 115 -134 173
-208 177 -226 260 -317 512 -561 367 -356 480 -494 595 -724 152 -304 217
-623 216 -1065 0 -466 -59 -771 -202 -1039 -155 -290 -319 -411 -559 -411 -43
0 -64 -5 -84 -21 -35 -27 -36 -77 -1 -109 23 -21 30 -22 132 -18 81 4 127 12
186 32 42 14 80 26 82 26 3 0 5 -11 5 -23 0 -46 -62 -80 -192 -104 -78 -15
-146 -17 -423 -16 -181 1 -388 6 -459 10 l-130 8 33 37 c20 23 68 55 124 83
101 51 122 69 137 124 21 78 -26 152 -118 184 -61 21 -102 65 -133 144 -22 54
-23 73 -24 253 l0 195 32 84 c63 162 169 300 295 381 67 44 127 66 214 80 98
16 131 74 75 131 -33 33 -48 34 -146 14 -269 -56 -516 -313 -607 -630 -20 -71
-23 -100 -22 -255 2 -240 31 -348 126 -455 l30 -35 -46 -19 c-83 -36 -149 -51
-225 -51 -79 0 -242 18 -258 29 -6 4 -5 42 3 106 7 55 20 204 29 330 52 761
148 1373 327 2087 53 211 60 250 50 273 -24 52 -96 58 -127 11 -21 -31 -132
-475 -189 -751 -110 -541 -172 -997 -216 -1607 -21 -294 -39 -443 -69 -561
-20 -74 -54 -171 -70 -196 -10 -16 -155 -29 -338 -30 l-103 -1 0 34 c0 25 -12
50 -44 93 -24 32 -42 61 -39 66 2 4 37 29 77 56 97 66 152 130 173 200 13 47
15 87 10 246 -17 500 -114 1034 -279 1545 -62 191 -162 455 -181 479 -35 42
-106 31 -128 -20 -10 -26 -9 -38 14 -94 20 -53 23 -71 16 -102 -22 -93 -39
-302 -39 -480 0 -231 10 -362 56 -723 61 -476 83 -680 90 -844 l7 -159 -34 7
c-61 12 -231 25 -341 26 l-107 0 25 50 c47 94 48 171 3 495 -65 476 -282 1306
-474 1805 -299 783 -349 1300 -174 1836 54 168 54 171 -33 284 -73 93 -94 109
-135 102z m1342 -2882 l56 -195 -23 -15 c-13 -8 -39 -31 -59 -52 l-36 -38 -6
112 c-12 195 -7 401 9 386 1 -2 28 -91 59 -198z m120 -491 c67 -346 126 -974
97 -1025 -10 -16 -11 -16 -12 -3 0 9 -24 52 -54 95 -93 138 -92 135 -131 439
-19 152 -35 292 -35 312 0 61 39 206 71 262 17 29 33 51 35 48 3 -2 15 -60 29
-128z m-811 -581 c12 -69 18 -138 13 -138 -21 0 -413 -72 -460 -85 -129 -34
-214 -103 -236 -192 -32 -127 64 -248 244 -307 132 -43 181 -47 580 -56 460
-9 463 -10 544 -95 59 -62 58 -75 -5 -95 -47 -16 -656 -16 -799 -1 -378 41
-632 126 -760 255 -83 84 -100 121 -100 222 1 73 4 89 38 157 67 136 154 200
357 265 134 42 434 98 541 101 34 1 37 -2 43 -31z m40 -319 c11 -55 7 -127
-10 -168 -9 -24 -38 -59 -71 -87 l-55 -47 -90 7 c-190 13 -348 82 -348 152 0
29 50 70 103 85 36 10 422 85 453 88 6 0 14 -13 18 -30z m1703 -468 c115 -9
165 -30 141 -58 -11 -14 -35 -15 -182 -9 -93 3 -171 8 -174 10 -2 2 1 22 7 44
l11 39 48 -9 c26 -5 93 -12 149 -17z"/>
</g>
</svg>
