<?xml version="1.0" standalone="no"?>
<!DOCTYPE svg PUBLIC "-//W3C//DTD SVG 20010904//EN"
 "http://www.w3.org/TR/2001/REC-SVG-20010904/DTD/svg10.dtd">
<svg version="1.0" xmlns="http://www.w3.org/2000/svg"
 width="739.000000pt" height="682.000000pt" viewBox="0 0 739.000000 682.000000"
 preserveAspectRatio="xMidYMid meet">

<g transform="translate(0.000000,682.000000) scale(0.100000,-0.100000)"
fill="#000000" stroke="none">
<path d="M1349 6811 c-66 -22 -99 -61 -99 -118 0 -23 30 -144 55 -223 6 -19 2
-20 -102 -20 -59 0 -150 -5 -201 -10 l-94 -9 -46 35 c-127 98 -327 164 -493
164 -89 0 -131 -14 -169 -55 -21 -23 -25 -36 -24 -88 0 -55 7 -75 56 -172 63
-123 101 -236 123 -361 l15 -84 -27 -56 c-26 -51 -26 -57 -13 -81 20 -36 63
-50 93 -30 13 8 48 66 78 128 31 63 70 128 87 144 44 44 50 78 18 109 -32 33
-66 33 -105 0 -21 -18 -31 -21 -31 -12 0 32 -66 209 -111 300 -27 54 -49 102
-49 108 0 17 142 11 224 -10 91 -23 211 -83 280 -140 l49 -41 86 8 c47 4 156
8 241 8 l155 0 18 -55 c23 -68 42 -90 79 -90 31 0 68 31 68 58 0 9 -27 116
-60 237 -33 121 -60 222 -60 224 0 2 27 1 59 -2 74 -6 135 -38 244 -128 45
-37 150 -116 232 -176 368 -264 494 -473 654 -1080 28 -106 59 -209 70 -230
38 -74 98 -114 194 -127 l47 -7 0 -67 c0 -92 16 -140 60 -184 l38 -38 163 0
c90 0 234 4 319 10 85 5 254 14 375 20 194 9 222 12 239 29 23 24 24 66 1 91
-16 18 -31 20 -144 20 -69 0 -189 -5 -266 -10 -331 -22 -617 -31 -631 -19 -10
8 -14 34 -14 86 0 116 -34 170 -121 193 -22 6 -57 15 -79 20 -53 14 -69 47
-115 231 -97 390 -202 644 -346 840 -71 96 -207 221 -354 326 -72 51 -166 122
-209 159 -107 89 -170 130 -241 155 -65 23 -175 33 -216 20z"/>
<path d="M4795 5850 c-119 -24 -206 -54 -307 -104 -94 -47 -115 -75 -87 -124
23 -41 59 -40 158 7 335 158 734 139 1008 -47 86 -59 184 -169 232 -262 32
-60 48 -81 67 -86 35 -9 72 10 85 43 8 23 5 38 -26 100 -122 246 -377 425
-683 478 -117 21 -333 18 -447 -5z"/>
<path d="M547 5630 c-17 -13 -27 -32 -28 -48 0 -15 -4 -36 -9 -47 -8 -19 -9
-19 -9 3 -3 86 -103 133 -167 79 -23 -20 -28 -34 -32 -85 -4 -59 -3 -63 30
-96 l34 -34 -30 -18 c-230 -133 -309 -222 -248 -277 10 -10 25 -17 33 -18 8
-1 -6 -5 -30 -10 -55 -11 -81 -34 -81 -72 0 -33 38 -74 94 -101 45 -21 61 -20
114 5 108 53 107 179 -2 179 l-37 0 21 29 c11 16 91 75 178 130 167 106 217
149 252 220 27 53 32 134 10 155 -27 27 -64 29 -93 6z"/>
<path d="M1114 5621 c-39 -24 -70 -97 -59 -138 3 -15 18 -40 33 -55 66 -71
192 2 192 111 0 75 -99 124 -166 82z"/>
<path d="M4364 5463 c-59 -64 -125 -200 -159 -328 -35 -130 -29 -372 11 -433
21 -32 79 -27 106 9 16 21 18 31 9 70 -14 58 -14 210 0 285 16 85 63 202 108
267 22 30 42 64 46 76 6 21 -9 60 -29 73 -24 17 -67 8 -92 -19z"/>
<path d="M5987 5452 c-22 -24 -22 -75 1 -94 9 -9 35 -25 58 -36 171 -86 307
-295 343 -530 l10 -63 141 -136 c197 -190 288 -315 360 -497 77 -196 224 -730
260 -948 12 -69 23 -196 26 -288 l6 -165 -77 -435 c-89 -500 -96 -580 -65
-690 56 -201 69 -266 84 -430 10 -103 31 -242 52 -340 72 -330 81 -434 41
-474 -21 -21 -34 -23 -178 -29 -192 -9 -243 -3 -269 31 -11 13 -20 33 -20 43
0 21 41 52 92 68 81 27 147 149 135 251 -11 94 -132 436 -287 810 -66 161 -74
188 -101 343 -15 93 -35 190 -43 215 -8 26 -34 130 -57 232 -95 426 -188 650
-326 786 -59 58 -153 109 -218 119 -81 12 -128 -67 -69 -114 15 -12 33 -21 41
-21 9 0 12 -7 9 -17 -2 -10 -7 -34 -11 -53 -4 -19 -42 -195 -85 -390 -124
-564 -124 -563 -124 -690 0 -103 3 -126 32 -215 41 -127 57 -225 78 -500 20
-260 25 -658 8 -675 -8 -8 -93 -13 -258 -15 l-246 -3 52 59 c67 76 104 95 202
104 87 8 116 26 116 71 0 52 -42 230 -86 363 -54 166 -174 413 -284 583 -44
70 -83 142 -86 160 -3 20 3 57 15 92 25 69 27 140 7 216 -8 30 -67 210 -131
399 -64 188 -114 349 -112 355 10 27 251 88 451 116 98 14 126 31 126 78 0 41
-32 67 -81 65 -69 -3 -287 -43 -392 -73 -212 -59 -320 -116 -567 -300 -225
-167 -308 -213 -495 -274 -71 -24 -398 -96 -434 -96 -11 0 -13 24 -9 137 5
133 5 137 -18 160 -29 29 -56 29 -90 0 l-28 -24 -4 -244 c-8 -419 11 -636 142
-1629 45 -344 69 -585 62 -615 -13 -52 -43 -60 -254 -63 l-195 -3 5 71 c6 86
21 104 126 162 40 22 77 49 83 61 17 30 3 138 -31 237 -40 120 -239 587 -320
755 -38 77 -105 201 -149 276 -84 140 -101 190 -101 289 0 64 -31 161 -78 241
-103 176 -524 686 -582 704 -49 16 -102 -48 -77 -93 7 -12 57 -72 113 -134 55
-62 131 -150 167 -195 l67 -81 -87 -6 c-164 -12 -334 -35 -350 -48 -9 -7 -22
-27 -29 -45 -33 -78 -38 -131 -38 -403 -1 -257 -3 -282 -26 -378 l-24 -104 23
-136 c29 -168 38 -390 22 -597 -16 -213 -42 -296 -117 -369 -65 -63 -128 -80
-289 -81 -172 0 -235 9 -235 34 0 54 82 124 195 166 39 15 81 36 93 48 64 59
98 191 81 311 -23 165 -321 1752 -344 1829 -13 46 -51 142 -84 214 -91 199
-123 315 -156 563 -20 158 -33 352 -41 630 -4 129 -11 243 -16 253 -5 10 -18
27 -29 38 -13 13 -19 33 -19 62 -1 112 -80 154 -395 206 -196 32 -257 51 -329
100 -55 38 -90 38 -119 -1 -30 -40 -15 -74 53 -120 78 -52 181 -84 380 -118
96 -16 196 -37 222 -46 43 -14 48 -19 48 -45 0 -33 23 -95 44 -119 10 -11 16
-66 20 -200 25 -691 68 -946 215 -1267 33 -70 66 -153 75 -183 9 -30 89 -444
178 -920 173 -927 182 -993 143 -1057 -12 -21 -33 -37 -55 -44 -56 -19 -131
-58 -185 -99 -93 -69 -139 -202 -97 -280 29 -54 86 -77 226 -91 247 -24 411
15 522 126 101 101 137 214 155 483 14 214 7 410 -21 556 -25 137 -25 162 2
261 19 72 21 108 22 365 1 157 5 297 10 312 5 18 17 29 34 32 53 11 249 26
338 26 l91 0 42 -60 c72 -102 99 -173 106 -275 9 -124 26 -169 118 -325 44
-74 111 -198 148 -275 124 -258 323 -742 333 -810 l6 -40 -72 -46 c-91 -57
-126 -104 -138 -190 -22 -147 -6 -209 62 -246 29 -15 60 -17 238 -17 236 1
293 11 349 66 88 86 87 120 -29 998 -78 600 -96 768 -106 1040 l-7 169 39 6
c478 83 666 155 937 358 203 152 290 209 298 195 4 -7 61 -175 128 -372 133
-394 136 -412 101 -524 -11 -35 -20 -74 -20 -88 0 -46 33 -120 100 -224 122
-191 213 -368 274 -538 24 -67 76 -259 76 -280 0 -5 -19 -12 -41 -16 -85 -14
-136 -45 -224 -137 -89 -94 -114 -142 -101 -195 10 -39 58 -80 110 -93 57 -14
171 -14 253 0 47 8 89 8 164 -1 145 -16 207 8 250 98 22 45 23 56 22 277 -1
251 -33 698 -58 820 -9 42 -29 119 -45 171 -51 165 -45 215 105 884 41 184 75
343 75 354 0 18 2 18 26 -5 80 -75 172 -280 232 -519 89 -351 132 -542 152
-665 19 -122 29 -150 145 -440 138 -344 235 -625 235 -679 0 -60 -19 -85 -85
-115 -103 -47 -157 -129 -141 -215 10 -53 65 -128 111 -151 37 -18 60 -20 270
-20 259 1 266 2 328 75 78 92 76 181 -17 611 -14 64 -32 188 -41 275 -20 207
-31 265 -71 404 -23 78 -34 135 -34 180 0 37 33 252 78 500 l77 435 -1 175
c-2 275 -38 474 -165 910 -158 545 -221 665 -495 935 l-132 130 -21 88 c-44
186 -128 335 -255 454 -120 112 -230 159 -269 115z"/>
<path d="M5564 5100 c-56 -21 -60 -70 -11 -137 78 -107 221 -225 352 -290 121
-61 318 -111 361 -91 29 14 46 52 35 81 -13 34 -30 44 -86 52 -197 29 -409
152 -539 313 -58 72 -77 84 -112 72z"/>
<path d="M892 4932 c-88 -89 -113 -100 -247 -108 -106 -7 -214 12 -288 51 -72
37 -107 30 -107 -22 0 -30 55 -65 151 -95 63 -20 95 -23 214 -23 121 1 148 4
197 23 135 54 254 207 189 242 -11 5 -22 10 -25 10 -4 0 -41 -35 -84 -78z"/>
<path d="M4583 4958 c-20 -10 -55 -77 -84 -163 -9 -25 -14 -84 -14 -160 1
-104 5 -130 28 -194 32 -92 89 -177 123 -185 25 -7 63 8 76 28 15 23 7 62 -22
106 -44 65 -70 158 -70 249 0 84 10 129 46 207 27 58 22 94 -15 113 -24 13
-39 13 -68 -1z"/>
<path d="M60 4850 c-45 -46 -36 -90 20 -90 31 0 44 8 59 37 17 32 13 61 -8 73
-30 15 -39 13 -71 -20z"/>
<path d="M4819 4641 c-23 -18 -24 -25 -23 -133 2 -202 51 -337 163 -449 67
-66 128 -102 194 -114 30 -6 40 -3 61 19 49 49 23 101 -63 125 -56 16 -134 93
-167 165 -35 76 -54 176 -54 283 0 83 -2 93 -22 107 -30 21 -61 20 -89 -3z"/>
<path d="M6253 4478 c-41 -20 -47 -85 -11 -116 25 -20 138 -44 177 -37 22 4
32 3 26 -3 -18 -17 -93 -41 -157 -51 -68 -11 -98 -34 -98 -75 0 -33 40 -66 81
-66 78 0 261 66 279 101 19 34 11 68 -20 90 l-30 22 30 18 c50 31 49 93 -2
120 -16 9 -34 7 -80 -7 -59 -17 -81 -16 -158 10 -8 2 -25 0 -37 -6z"/>
<path d="M5347 4420 c-32 -25 -35 -60 -11 -141 42 -142 148 -271 277 -333 39
-20 91 -39 114 -42 36 -6 45 -3 68 20 21 21 25 33 20 54 -9 38 -19 47 -67 61
-145 43 -261 169 -288 314 -11 57 -23 73 -60 82 -18 4 -34 0 -53 -15z"/>
<path d="M5880 4310 c-30 -30 -25 -70 19 -136 86 -131 216 -212 369 -230 56
-6 62 -5 86 19 54 54 22 105 -74 119 -35 4 -87 19 -116 32 -59 27 -133 96
-159 147 -26 52 -45 69 -77 69 -15 0 -37 -9 -48 -20z"/>
</g>
</svg>
