<svg xmlns="http://www.w3.org/2000/svg" viewBox="0 -0.5 34 32" shape-rendering="crispEdges">
<metadata>Made with Pixels to Svg https://codepen.io/shshaw/pen/XbxvNj</metadata>
<path stroke="#486870" d="M0 0h34M0 1h34M0 2h34M0 3h34M0 4h34M0 5h34M0 6h34M0 7h14M25 7h9M0 8h12M27 8h7M0 9h11M28 9h6M0 10h10M29 10h5M0 11h9M30 11h4M0 12h8M30 12h4M0 13h7M31 13h3M0 14h7M31 14h3M0 15h6M31 15h3M0 16h5M31 16h3M0 17h4M31 17h3M0 18h3M31 18h3M0 19h3M31 19h3M0 20h3M31 20h3M0 21h3M31 21h3M0 22h3M31 22h3M0 23h3M30 23h4M0 24h4M29 24h5M0 25h34M0 26h34M0 27h34M0 28h34M0 29h34M0 30h34M0 31h34" />
<path stroke="#000000" d="M14 7h11M12 8h2M25 8h2M11 9h1M27 9h1M10 10h1M28 10h1M9 11h1M29 11h1M8 12h1M7 13h1M30 13h1M7 14h1M30 14h1M6 15h1M18 15h3M26 15h1M30 15h1M5 16h1M30 16h1M4 17h1M30 17h1M3 18h1M30 18h1M3 19h1M30 19h1M3 20h1M30 20h1M3 21h1M30 21h1M3 22h1M30 22h1M3 23h1M29 23h1M4 24h25" />
<path stroke="#601010" d="M14 8h1M24 8h1M12 9h1M26 9h1M29 12h1M8 13h1M7 15h1M17 15h1M25 15h1M27 15h1M4 18h1M29 22h1M4 23h1M9 23h2M28 23h1" />
<path stroke="#b02038" d="M15 8h1M23 8h1M13 9h1M25 9h1M11 10h1M27 10h1M10 11h1M28 11h1M9 12h1M29 13h1M6 16h1M5 17h1M24 18h1M24 19h1M8 22h3M5 23h1M8 23h1M11 23h2M27 23h1" />
<path stroke="#d04870" d="M16 8h1M22 8h1M14 9h1M24 9h1M28 12h1M8 14h1M29 14h1M16 15h1M21 15h1M24 15h1M28 15h1M6 17h1M8 20h1M8 21h2M29 21h1M4 22h1M7 22h1M11 22h1M28 22h1M6 23h2M13 23h2M26 23h1" />
<path stroke="#f070a0" d="M17 8h5M15 9h1M23 9h1M12 10h1M26 10h1M11 11h1M27 11h1M10 12h1M9 13h1M8 15h1M29 15h1M7 16h1M7 18h1M23 18h1M4 19h1M7 19h2M23 19h1M7 20h1M9 20h2M24 20h1M29 20h1M4 21h1M7 21h1M10 21h4M27 21h2M5 22h2M12 22h16M15 23h11" />
<path stroke="#f088b8" d="M16 9h1M22 9h1M13 10h1M25 10h1M26 11h1M27 12h1M28 13h1M9 14h1M7 17h2M13 17h1M17 17h1M27 17h1M5 18h2M8 18h1M25 18h1M9 19h1M25 19h1M29 19h1M4 20h1M6 20h1M11 20h1M23 20h1M28 20h1M5 21h2M14 21h2M25 21h2" />
<path stroke="#f8a0d8" d="M17 9h5M14 10h11M12 11h14M11 12h16M10 13h18M10 14h19M9 15h7M22 15h2M8 16h22M9 17h4M18 17h9M9 18h14M26 18h4M5 19h2M10 19h13M26 19h3M5 20h1M12 20h11M25 20h3M16 21h9" />
<path stroke="#f81880" d="M14 17h3M28 17h2" />
</svg>